<svg width="284" height="177" viewBox="0 0 284 177" fill="none" xmlns="http://www.w3.org/2000/svg">
<g clip-path="url(#clip0_2_46)">
<path d="M86.78 176.1C86.6 175.64 86.14 175.47 85.79 175.19C84.28 174 83.63 172.2 84.15 170.44C84.69 168.61 85.82 167.45 87.84 167.28C90.82 167.03 93.81 167.1 96.79 167.24C98.04 167.3 99.27 167.32 100.51 167.2C101.44 167.11 101.66 166.68 101.65 165.83C101.61 162.43 101.6 159.04 101.65 155.64C101.67 154.53 101.28 154.23 100.2 154.24C95.3 154.29 90.4 154.27 85.5 154.27C61.5 154.27 37.51 154.28 13.51 154.27C5.87999 154.27 -0.0100098 148.38 -0.0100098 140.79C-9.76585e-06 98.28 0.00999023 55.78 -9.76585e-06 13.27C-9.76585e-06 6.92 5.25999 0.12 13.13 0.02C14.38 0.01 15.62 0.02 16.87 0.02C86.2 0.02 155.54 0.03 224.87 0C229 0 232.55 1.24 235.37 4.25C237.69 6.73 238.99 9.7 238.97 13.14C238.95 19.72 239.19 26.31 238.84 32.89C238.84 33.01 238.83 33.14 238.84 33.26C238.87 35.38 238.66 35.65 236.58 35.37C234.7 35.13 232.85 35.43 230.99 35.53C230.15 35.57 229.9 35.37 229.9 34.53C229.94 27.82 229.93 21.11 229.96 14.4C229.96 13.25 229.72 12.16 229.16 11.18C228.28 9.64 226.93 9.04 225.13 9.01C212.35 8.82 199.57 9.01 186.79 8.98C166.04 8.93 145.29 8.97 124.54 8.97C92.17 8.97 59.81 8.97 27.44 8.97C22.96 8.97 18.48 9.05 14 9.1C10.94 9.14 9.11999 10.95 9.10999 13.99C9.09999 46.39 9.09999 78.79 9.05999 111.18C9.05999 113.37 9.29999 115.57 8.93999 117.75C8.81999 118.46 9.28999 118.73 9.88999 118.79C10.51 118.85 11.13 118.84 11.76 118.84C70.18 118.84 128.59 118.85 187.01 118.82C190.88 118.82 190.15 118.28 191.85 121.98C192.77 123.97 194.01 125.7 195.76 127.04C195.92 127.16 196.12 127.25 196.08 127.65C194.93 127.72 193.76 127.86 192.58 127.86C177.88 127.86 163.19 127.86 148.49 127.86C131.89 127.86 115.3 127.88 98.7 127.88C80.44 127.88 62.17 127.88 43.91 127.85C37.15 127.85 30.4 127.66 23.64 127.74C19.25 127.8 14.86 127.83 10.46 127.74C9.03999 127.71 8.92999 128 8.97999 129.42C9.08999 132.69 9.08999 135.96 9.06999 139.23C9.03999 143.67 10.47 145.17 14.89 145.17C43.95 145.17 73.02 145.26 102.08 145.11C108.72 145.07 115.35 145.36 121.99 145.18C125.68 145.08 129.37 144.96 133.07 145.01C163.46 145.4 193.85 145.06 224.23 145.18C225.27 145.18 226.3 145.15 227.31 144.84C227.92 144.65 228.55 144.62 229.16 144.72C231.75 145.16 234.38 144.91 236.98 145.16C238.18 145.28 238.31 145.44 237.71 146.5C234.89 151.56 230.61 154.24 224.76 154.24C195.99 154.24 167.22 154.24 138.45 154.21C137.47 154.21 137.15 154.53 137.16 155.51C137.21 158.82 137.22 162.14 137.18 165.45C137.17 166.57 137.53 167.1 138.73 167.17C142.63 167.41 146.53 167.22 150.43 167.26C151.32 167.27 152.15 167.37 152.92 167.88C155.39 169.52 155.61 172.92 153.38 174.96C153.04 175.27 152.42 175.4 152.55 176.06H86.78V176.1ZM119.41 154.28C119.41 154.28 119.41 154.26 119.41 154.25C116.96 154.25 114.52 154.28 112.07 154.23C111.11 154.21 110.75 154.51 110.76 155.5C110.8 158.89 110.8 162.29 110.76 165.68C110.75 166.66 111.05 167.09 112.08 167.14C117.01 167.4 121.94 167.39 126.87 167.16C127.84 167.12 128.15 166.73 128.14 165.79C128.11 162.4 128.1 159 128.14 155.61C128.15 154.56 127.73 154.24 126.73 154.26C124.28 154.3 121.84 154.27 119.39 154.27L119.41 154.28Z" fill="black"/>
<path d="M283.09 96.55C282.68 96.69 282.58 97.07 282.43 97.41C280.99 100.74 278.48 102.85 275.06 103.95C273.83 104.34 273.09 106.64 273.73 107.96C274.81 110.21 275.42 112.54 274.95 115.05C274.61 116.89 273.8 118.51 272.55 119.89C270.9 121.7 269.24 123.5 267.49 125.21C264.02 128.61 258.81 129.36 254.47 127.18C252.94 126.41 250.69 127.4 250.24 129.04C249.21 132.8 245.01 136.15 241.1 136.41C238.9 136.55 236.69 136.48 234.51 136.66C230.07 137.04 224.69 133.97 223.22 129.15C222.74 127.57 221.47 127.17 220.18 126.73C219.74 126.58 219.3 126.72 218.88 126.98C215.39 129.2 211.77 128.98 208.42 126.94C205.01 124.86 202.1 122.06 199.9 118.69C197.58 115.14 197.89 111.39 199.65 107.7C200.14 106.67 199.48 104.86 198.15 104.04C197.48 103.63 196.77 103.28 196.07 102.92C192.26 100.98 190.21 97.9 190.11 93.61C190.06 91.46 190.09 89.3 190.13 87.15C190.22 82.41 193.49 78.03 198.02 76.56C199.39 76.11 200.35 73.98 199.71 72.71C197.32 67.97 197.92 63.71 201.58 59.82C203.4 57.89 205.09 55.84 207.25 54.25C210.74 51.69 214.51 51.24 218.39 53.11C219.85 53.81 221.01 53.37 222.28 52.92C222.71 52.77 222.85 52.37 222.97 51.95C224.26 47.22 228.31 44.08 233.2 44.04C235.44 44.02 237.68 44.01 239.93 44.01C244.46 44.01 248.23 46.55 249.77 50.83C250.29 52.29 251.23 53.05 252.6 53.51C253.23 53.72 253.78 53.68 254.39 53.39C259.54 50.99 264.29 51.92 268.15 56.08C269.78 57.84 271.63 59.42 272.99 61.42C275.44 65.01 275.86 68.74 273.66 72.61C273.02 73.74 273.75 76.08 275.09 76.54C278.53 77.71 280.9 79.97 282.41 83.2C282.54 83.48 282.72 83.7 283.08 83.6V96.53L283.09 96.55ZM199.17 90.02C199.17 90.02 199.2 90.02 199.21 90.02C199.21 90.97 199.14 91.93 199.23 92.88C199.4 94.6 200.08 95.2 201.81 95.27C202.85 95.31 203.89 95.32 204.92 95.28C205.69 95.25 206.03 95.54 206.17 96.3C206.92 100.38 208.44 104.16 210.81 107.58C211.27 108.25 211.15 108.65 210.61 109.16C209.67 110.04 208.78 110.97 207.9 111.9C207.12 112.74 207.12 113.58 207.96 114.41C209.47 115.89 210.98 117.37 212.46 118.88C213.29 119.73 214.08 119.7 214.97 118.98C215.88 118.25 216.67 117.4 217.45 116.54C218.1 115.81 218.71 115.64 219.6 116.24C222.94 118.5 226.63 119.96 230.6 120.66C231.37 120.8 231.65 121.13 231.61 121.9C231.56 122.97 231.56 124.06 231.62 125.13C231.73 126.89 232.34 127.5 234.1 127.56C235.68 127.61 237.25 127.57 238.83 127.56C240.73 127.56 241.47 126.9 241.62 125C241.7 123.93 241.67 122.85 241.69 121.77C241.7 121.08 242.04 120.77 242.73 120.63C245.41 120.08 248.06 119.41 250.5 118.12C251.74 117.46 252.96 116.74 254.18 116.03C254.73 115.71 255.26 115.54 255.67 116.23C256.32 117.33 257.31 118.08 258.29 118.85C259.5 119.81 259.96 119.85 261.07 118.76C262.52 117.34 263.91 115.85 265.29 114.36C266.09 113.49 266.03 112.56 265.24 111.69C264.38 110.74 263.51 109.79 262.63 108.86C262.2 108.41 262.04 108.02 262.51 107.47C265.09 104.36 266.46 100.71 267.09 96.78C267.25 95.79 267.59 95.42 268.58 95.45C269.78 95.48 270.98 95.56 272.18 95.33C273.43 95.09 274.06 94.4 274.05 93.11C274.05 91.7 274.1 90.29 274.09 88.88C274.07 85.5 273.78 85.22 270.38 85.18C267.51 85.15 267.48 85.15 266.89 82.46C266.18 79.21 264.72 76.31 262.93 73.54C261.88 71.91 261.89 71.89 263.49 70.7C264.2 70.18 264.81 69.58 265.35 68.88C266.02 68.01 266.09 67.22 265.37 66.31C264.49 65.2 263.5 64.2 262.48 63.23C259.8 60.65 258.71 60.69 256.21 63.5C256.04 63.69 255.86 63.87 255.75 64.08C255.22 65.05 254.64 64.88 253.84 64.32C250.65 62.05 247.11 60.57 243.22 60.02C242.2 59.88 241.73 59.4 241.71 58.42C241.68 57.22 241.7 56.02 241.65 54.82C241.62 54.03 241.35 53.29 240.45 53.16C238.02 52.82 235.58 52.72 233.14 53.08C232.12 53.23 231.63 53.92 231.58 54.89C231.53 55.84 231.58 56.79 231.58 57.75C231.58 59.0033 230.977 59.7033 229.77 59.85C229.52 59.88 229.28 59.93 229.04 60.02C225.64 61.24 222.22 62.41 219.31 64.64C218.7 65.11 218.27 65.15 217.77 64.46C217.01 63.41 216.02 62.58 215.03 61.76C214.16 61.03 213.31 61.03 212.48 61.82C211 63.21 209.51 64.6 208.04 65.99C207.16 66.82 207.18 67.74 207.84 68.67C208.49 69.58 209.22 70.44 210.13 71.11C211 71.76 211.2 72.42 210.53 73.42C208.34 76.69 206.68 80.19 206.13 84.13C206.03 84.86 205.65 85.2 204.88 85.2C203.8 85.2 202.73 85.32 201.65 85.35C199.94 85.41 199.22 86.09 199.18 87.77C199.16 88.52 199.18 89.26 199.18 90.01L199.17 90.02Z" fill="black"/>
<path d="M99.54 37.84C99.53 39.13 98.98 40.27 97.71 41.12C88.7 47.12 79.71 53.14 70.71 59.15C68.81 60.42 66.89 61.63 64.99 62.9C63.73 63.74 63.73 64.1 64.99 64.92C72.19 69.67 79.44 74.35 86.59 79.17C90.27 81.65 94.09 83.92 97.6 86.64C99.13 87.82 100 89.32 99.49 91.28C98.97 93.28 97.57 94.41 95.54 94.76C94.38 94.96 93.42 94.48 92.51 93.88C87.59 90.65 82.68 87.4 77.76 84.16C70.35 79.28 62.94 74.4 55.53 69.52C54.63 68.93 53.79 68.23 52.86 67.7C50.23 66.22 50.53 61.63 52.86 60.17C57.46 57.28 61.91 54.16 66.43 51.15C71.16 48 75.9 44.88 80.63 41.73C84.57 39.11 88.46 36.43 92.44 33.89C93.92 32.94 95.63 32.73 97.3 33.63C98.9 34.49 99.53 35.89 99.55 37.81L99.54 37.84Z" fill="black"/>
<path d="M143.95 33.08C145.76 32.96 147.19 34.14 148.63 35.14C154.15 38.98 159.76 42.66 165.36 46.38C171.96 50.76 178.54 55.18 185.12 59.58C189.23 62.33 189.3 65.48 185.18 68.24C179.5 72.05 173.88 75.96 168.03 79.53C165.99 80.78 164.01 82.16 162.08 83.58C157.66 86.81 152.95 89.62 148.43 92.71C147.47 93.37 146.46 93.94 145.36 94.35C143.35 95.09 140.97 94.36 139.97 92.71C138.81 90.81 139.17 88.29 140.93 86.87C142.12 85.91 143.44 85.11 144.72 84.26C151.12 80.03 157.52 75.81 163.92 71.57C167.24 69.37 170.55 67.15 173.86 64.94C175.27 64 175.28 63.85 173.91 62.93C168.94 59.62 163.93 56.36 159 52.99C153.38 49.15 147.64 45.5 141.95 41.78C139.29 40.05 138.55 37.36 140.03 35.08C140.91 33.72 142.18 33.05 143.95 33.08Z" fill="black"/>
<path d="M110.53 101.35C107.36 101.37 105.43 98.78 106.29 95.41C107.47 90.8 108.87 86.24 110.04 81.63C111.5 75.85 113.21 70.15 114.54 64.33C116.03 57.8 118.09 51.4 119.86 44.93C121.24 39.9 122.55 34.85 123.88 29.8C124.48 27.51 126.85 26.02 129.21 26.49C131.45 26.94 133.07 29.28 132.75 31.59C132.38 34.23 131.41 36.71 130.74 39.27C128.48 47.88 126.24 56.49 123.94 65.09C122.74 69.57 121.34 74 120.21 78.49C118.58 84.95 116.82 91.38 115 97.79C114.35 100.1 112.87 101.32 110.53 101.33V101.35Z" fill="black"/>
<path d="M135.5 141.06C129.78 140.65 124.05 141.11 118.32 141.06C113.51 141.03 108.7 140.68 103.88 141.03C103.02 141.09 102.14 140.95 101.27 140.87C99.12 140.68 97.44 139.02 97.4 137.06C97.34 134.18 98.7 132.36 101.16 132.06C101.49 132.02 101.82 132.02 102.15 132.02C113.69 132.02 125.23 132.02 136.78 132.02C139.82 132.02 141.76 134 141.66 136.91C141.59 138.77 140.24 140.32 138.21 140.8C137.32 141.02 136.41 141.11 135.49 141.03L135.5 141.06Z" fill="black"/>
<path d="M25.33 135.25C25.31 137.11 23.43 139.11 21.77 139.05C19.59 138.97 17.77 137.25 17.77 135.26C17.77 132.99 19.48 131.32 21.8 131.35C23.7 131.37 25.36 133.2 25.34 135.25H25.33Z" fill="black"/>
<path d="M40.04 135.13C40.03 137.53 38.7 138.93 36.45 138.91C34.14 138.89 32.65 137.47 32.64 135.27C32.64 133.27 34.46 131.38 36.38 131.38C38.67 131.38 40.04 132.79 40.03 135.13H40.04Z" fill="black"/>
<path d="M218.76 90.48C218.81 80.54 226.78 72.52 236.65 72.67C247.08 72.83 254.75 80.68 254.56 90.73C254.37 100.43 246.16 108.09 236.54 108.01C226.09 107.92 218.78 99.05 218.76 90.48ZM245.21 90.44C245.46 85.08 241.19 81.79 237.1 81.7C231.83 81.57 228.17 84.79 227.97 90.38C227.81 94.9 231.91 98.91 236.59 98.95C240.57 98.98 245.54 95.86 245.22 90.45L245.21 90.44Z" fill="black"/>
</g>
<defs>
<clipPath id="clip0_2_46">
<rect width="283.09" height="176.1" fill="white"/>
</clipPath>
</defs>
</svg>
