<svg width="251" height="179" viewBox="0 0 251 179" fill="none" xmlns="http://www.w3.org/2000/svg">
<path d="M190.989 178.166C182.829 178.146 174.829 177.146 166.989 174.886C152.119 170.596 139.939 162.436 130.939 149.756C129.289 147.426 127.959 144.866 126.459 142.436C125.879 141.506 126.409 141.116 127.139 140.696C133.829 136.836 140.499 132.966 147.179 129.096C149.369 127.826 151.589 126.606 153.719 125.236C154.799 124.546 155.299 124.876 155.879 125.806C158.469 129.996 161.469 133.856 165.169 137.126C170.099 141.476 175.779 144.286 182.299 145.436C188.399 146.516 194.459 146.566 200.419 144.806C205.609 143.266 210.179 140.746 212.679 135.586C216.129 128.476 214.279 120.556 208.049 115.416C204.519 112.506 200.489 110.456 196.359 108.596C189.289 105.406 182.129 102.416 175.069 99.2059C166.019 95.1059 157.489 90.1759 150.359 83.1159C143.439 76.2659 139.379 67.9359 137.569 58.4159C136.519 52.8959 136.249 47.3359 136.889 41.7959C137.899 33.1459 140.909 25.2359 146.459 18.3759C154.219 8.78587 164.459 3.49587 176.359 1.18587C183.909 -0.274134 191.529 -0.294134 199.169 0.625866C207.149 1.58587 214.619 4.01587 221.429 8.32587C226.289 11.3959 230.359 15.3859 233.889 19.8759C235.809 22.3159 237.419 24.9959 239.189 27.5559C239.819 28.4659 239.649 29.0459 238.689 29.6559C230.109 35.1059 221.539 40.5859 212.999 46.0959C212.009 46.7359 211.659 46.2359 211.149 45.5059C209.509 43.1659 207.959 40.7359 206.109 38.5759C202.209 34.0059 197.099 31.7959 191.139 31.4659C187.359 31.2559 183.619 31.4459 180.209 33.2459C175.179 35.9159 172.329 40.0359 172.029 45.8659C171.659 53.2759 175.279 58.3259 181.329 61.9859C187.169 65.5159 193.519 68.0159 199.759 70.7059C208.339 74.3959 216.869 78.1759 224.789 83.1659C231.489 87.3859 237.519 92.3859 242.099 98.9059C246.019 104.486 248.429 110.736 249.489 117.476C250.729 125.346 250.799 133.216 248.849 140.976C245.999 152.266 239.779 161.236 229.969 167.656C221.459 173.226 212.059 176.216 202.029 177.336C198.359 177.746 194.669 177.876 190.989 178.136V178.166Z" fill="black"/>
<path d="M106.779 66.3558C106.779 86.3858 106.819 106.416 106.759 126.446C106.739 134.096 105.459 141.596 102.659 148.736C97.2791 162.456 87.2891 171.196 73.2091 175.346C67.3991 177.056 61.4791 177.876 55.4191 177.906C48.8391 177.946 42.3291 177.576 35.9191 175.906C26.2391 173.386 17.8691 168.626 10.8391 161.546C6.41912 157.086 2.94912 151.926 0.239125 146.256C-0.0808754 145.596 -0.190875 145.126 0.629125 144.636C7.75912 140.376 14.8491 136.066 21.9591 131.776C23.9091 130.596 25.8891 129.456 27.8191 128.236C28.6491 127.716 29.0391 127.866 29.5691 128.706C31.5991 131.936 33.5891 135.206 35.8691 138.256C39.9191 143.676 45.5491 146.046 52.2291 145.916C54.4191 145.876 56.6391 145.686 58.7791 145.226C64.0991 144.076 67.4691 140.676 69.2591 135.586C70.7391 131.396 70.9891 127.066 70.9891 122.696C70.9891 91.9458 70.9891 61.1858 70.9891 30.4358C70.9891 21.4558 70.9991 12.4858 70.9591 3.50578C70.9591 2.45578 71.2591 2.17578 72.2891 2.17578C83.2591 2.20578 94.2291 2.21578 105.199 2.17578C106.449 2.17578 106.829 2.51578 106.819 3.78578C106.779 24.6458 106.789 45.5058 106.789 66.3758L106.779 66.3558Z" fill="black"/>
</svg>
