<svg width="251" height="285" viewBox="0 0 251 285" fill="none" xmlns="http://www.w3.org/2000/svg">
<g filter="url(#filter0_d_5_134)">
<path d="M237.524 67.5878C236.013 65.9832 234.115 65.0425 232.237 63.985C227.456 61.2895 222.766 58.4406 218.016 55.6918C213.189 52.8997 208.265 50.2643 203.514 47.352C198.694 44.3964 193.714 41.7376 188.85 38.8654C183.789 35.8797 178.638 33.0375 173.554 30.1019C169.315 27.6533 165.121 25.098 160.858 22.6828C154.099 18.8565 147.454 14.84 140.605 11.1571C137.326 9.39576 134.144 7.33416 130.928 5.38597C128.846 4.12499 126.861 2.58712 124.616 1.74647C120.713 0.281992 116.887 1.04592 113.474 3.39442C110.295 5.58613 106.862 7.33415 103.557 9.30235C96.451 13.5323 89.2288 17.5588 82.0598 21.6787C73.6233 26.5291 65.19 31.3929 56.7601 36.2567C45.7449 42.615 34.733 48.9833 23.721 55.3482C19.0974 58.0203 14.4772 60.6991 9.85357 63.3712C8.94953 63.8949 8.04549 64.422 7.12811 64.919C3.41188 66.9339 1.03002 69.8729 1.02335 74.253C0.993328 95.3527 1.01001 116.453 1.01001 137.552H1C1 158.652 1 179.752 1.01001 200.852C1.01001 201.669 1.04003 202.476 1.21684 203.307C2.13088 207.577 5.4468 209.672 8.83944 211.493C13.0527 213.755 17.1526 216.2 21.2825 218.595C27.1504 221.998 32.9949 225.454 38.8762 228.83C43.7366 231.619 48.6004 234.418 53.4742 237.19C57.8743 239.695 62.3111 242.14 66.6278 244.796C71.5116 247.802 76.5789 250.504 81.5494 253.369C87.6475 256.885 93.6856 260.515 99.8304 263.947C104.748 266.693 109.548 269.639 114.448 272.421C118.191 274.546 121.761 275.103 125.554 272.975C130.571 270.159 135.562 267.297 140.542 264.415C150.803 258.473 161.045 252.499 171.306 246.557C178.482 242.404 185.684 238.294 192.863 234.148C200.075 229.981 207.241 225.728 214.496 221.635C221.452 217.711 228.384 213.745 235.253 209.665C238.375 207.81 240.03 204.928 240.036 201.429C240.106 158.896 240.086 116.362 240.096 73.8326C240.096 71.3774 239.196 69.3592 237.521 67.5811L237.524 67.5878Z" fill="#8FC53F" stroke="#46483D" stroke-width="2" stroke-miterlimit="10"/>
<path d="M170.262 129.583C170.262 138.349 170.232 147.12 170.289 155.886C170.299 157.544 169.645 158.475 168.27 159.349C163.457 162.415 158.239 164.79 153.552 168.073C152.481 168.823 151.207 169.294 150.003 169.834C149.446 170.084 148.809 170.191 148.218 169.917C146.133 168.953 143.718 168.353 142.063 166.892C139.471 164.61 136.315 163.406 133.553 161.511C131.732 160.26 129.15 159.806 128.082 157.885C127.055 156.033 127.816 153.635 127.779 151.483C127.692 146.212 127.719 140.942 127.672 135.671C127.659 134.36 128.012 133.466 129.3 132.762C133.723 130.34 138.12 127.848 142.397 125.176C143.675 124.379 145.012 123.638 146.23 122.717C147.998 121.38 150.173 121.45 151.911 122.911C152.645 123.528 153.459 123.968 154.263 124.435C155.621 125.226 156.014 124.999 156.017 123.421C156.031 118.317 156.021 113.21 156.021 108.106C156.021 104.056 156.011 100.003 156.027 95.9531C156.034 93.9682 156.738 93.5412 158.479 94.532C162.129 96.6036 165.732 98.7553 169.388 100.817C170.472 101.431 170.245 102.395 170.245 103.282C170.265 112.049 170.259 120.816 170.259 129.586L170.262 129.583ZM156.007 146.559C156.007 143.441 154.825 141.196 152.461 139.824C152.365 139.767 152.258 139.727 152.174 139.657C149.906 137.716 147.985 138.353 145.426 139.657C142.35 141.225 141.85 143.18 141.853 146.252C141.853 149.018 142.534 150.612 145.089 151.91C148.999 153.895 148.815 153.965 152.718 151.937C155.267 150.612 156.861 149.095 156.007 146.566V146.559Z" fill="#46483D"/>
<path d="M113.598 145.612C113.598 149.051 113.574 152.494 113.611 155.933C113.624 157.164 113.217 158.038 112.1 158.639C107.113 161.314 102.349 164.383 97.3418 167.035C95.9507 167.772 94.4695 168.543 93.2653 169.691C92.7949 170.138 92.051 170.041 91.3504 169.58C86.6134 166.465 81.6028 163.803 76.699 160.964C75.2212 160.106 73.7567 159.229 72.2889 158.358C71.3248 157.788 71.2848 156.851 71.2848 155.883C71.2915 150.169 71.2881 144.451 71.2781 138.736C71.2781 137.862 71.2581 136.998 71.0846 136.114C70.6943 134.12 71.2314 133.306 73.1062 132.228C77.8866 129.479 82.6103 126.63 87.4274 123.952C89.0486 123.051 90.4731 121.63 92.518 121.593C93.0318 121.583 93.4921 121.626 93.9425 121.91C99.0431 125.086 104.501 127.664 109.448 131.107C110.022 131.504 110.726 131.724 111.386 131.988C113.121 132.682 113.668 133.993 113.624 135.791C113.548 139.063 113.601 142.339 113.598 145.612ZM98.8196 145.368C98.8196 144.264 98.7595 143.647 98.8329 143.046C98.9897 141.785 98.6561 140.801 97.5086 140.141C95.7539 139.13 94.0225 138.079 92.2645 137.075C91.7541 136.785 91.3738 137.159 90.9334 137.432C89.3222 138.426 87.6809 139.367 86.023 140.281C85.2957 140.681 85.0222 141.242 85.0355 142.032C85.0555 143.584 85.1223 145.138 85.0322 146.683C84.9588 147.977 85.3724 148.848 86.4933 149.552C88.1012 150.556 89.7058 151.553 91.4138 152.384C91.8208 152.581 92.1077 152.544 92.478 152.324C93.4621 151.74 94.4529 151.159 95.4837 150.662C97.9322 149.488 99.7103 147.96 98.8196 145.372V145.368Z" fill="#F8F8F8"/>
<path d="M56.9569 148.814C56.9569 153.475 56.9636 158.138 56.9536 162.799C56.9469 164.904 56.2297 165.317 54.425 164.29C51.2158 162.462 48.0333 160.587 44.7975 158.812C43.3163 158.002 42.6625 156.937 42.7092 155.206C42.8092 151.323 42.6691 147.433 42.7725 143.554C42.8193 141.809 42.2421 140.678 40.6242 140.051C40.1638 139.874 39.6468 139.701 39.3065 139.367C36.6711 136.785 34.2693 138.026 31.5772 139.457C29.272 140.681 28.5381 142.219 28.6649 144.711C28.8517 148.364 28.6849 152.034 28.7283 155.696C28.745 157.008 28.2512 157.925 27.1137 158.552C23.5209 160.534 19.848 162.375 16.3686 164.567C15.2144 165.294 14.6807 164.87 14.6673 163.246C14.6306 159.306 14.6406 155.366 14.6373 151.423C14.634 146.926 14.6573 142.433 14.6239 137.936C14.6139 136.428 13.9968 134.927 14.9542 133.436C15.2978 132.899 15.6214 132.468 16.1585 132.158C22.2099 128.669 28.2646 125.183 34.2993 121.667C35.627 120.893 36.7278 121.393 37.8721 122.057C42.936 124.993 48.0066 127.925 53.0839 130.834C53.8445 131.267 54.5784 131.731 55.4391 132.025C56.59 132.422 57.0237 133.399 57.0136 134.657C56.9703 139.374 56.997 144.091 56.997 148.808H56.9603L56.9569 148.814Z" fill="#46483D"/>
<path d="M184.293 146.369C184.076 143.153 184.6 139.44 184.013 135.741C183.776 134.25 184.53 133.205 185.811 132.488C188.263 131.117 190.808 129.866 193.17 128.392C196.643 126.223 200.265 124.322 203.701 122.107C204.982 121.279 205.993 121.386 207.277 122.127C210.617 124.052 213.926 126.043 217.212 128.045C219.557 129.476 222.039 130.63 224.364 132.078C225.682 132.895 226.576 133.759 226.346 135.514C226.159 136.932 226.236 138.399 226.329 139.837C226.399 140.925 225.982 141.669 225.105 142.179C221.492 144.291 217.876 146.399 214.236 148.467C213.219 149.044 212.378 148.527 212.328 147.303C212.271 145.919 212.238 144.524 212.338 143.143C212.425 141.972 211.984 141.282 210.967 140.771C209.629 140.101 208.325 139.364 207.044 138.596C205.059 137.405 203.381 138.163 201.75 139.337C201.53 139.497 201.373 139.804 201.136 139.877C198.194 140.778 198.367 143.066 198.187 145.545C197.96 148.631 198.984 150.329 201.733 151.743C206.9 154.402 211.861 157.464 216.898 160.377C217.542 160.75 218.406 160.987 218.359 161.991C218.316 162.892 217.532 163.102 216.922 163.442C213.536 165.34 210.123 167.195 206.75 169.117C205.83 169.64 204.989 169.694 204.088 169.18C198.944 166.258 193.804 163.332 188.66 160.413C187.612 159.819 186.718 159.009 185.597 158.502C184.626 158.061 184.276 157.104 184.286 156.013C184.31 152.961 184.293 149.908 184.293 146.372V146.369Z" fill="#46483D"/>
<path d="M209.676 145.579C209.676 147.937 207.938 149.972 205.583 149.795C204.218 149.692 202.907 148.641 201.62 147.934C200.953 147.567 201.286 146.813 201.319 146.259C201.379 145.238 200.792 143.974 201.626 143.247C202.691 142.319 204.015 141.312 205.319 141.165C206.233 141.062 207.478 141.983 208.545 142.51C210.096 143.277 209.563 144.525 209.679 145.582L209.676 145.579Z" fill="#46483D"/>
</g>
<defs>
<filter id="filter0_d_5_134" x="0" y="-0.000488281" width="250.467" height="284.32" filterUnits="userSpaceOnUse" color-interpolation-filters="sRGB">
<feFlood flood-opacity="0" result="BackgroundImageFix"/>
<feColorMatrix in="SourceAlpha" type="matrix" values="0 0 0 0 0 0 0 0 0 0 0 0 0 0 0 0 0 0 127 0" result="hardAlpha"/>
<feOffset dx="5" dy="5"/>
<feGaussianBlur stdDeviation="2"/>
<feComposite in2="hardAlpha" operator="out"/>
<feColorMatrix type="matrix" values="0 0 0 0 0 0 0 0 0 0 0 0 0 0 0 0 0 0 0.25 0"/>
<feBlend mode="normal" in2="BackgroundImageFix" result="effect1_dropShadow_5_134"/>
<feBlend mode="normal" in="SourceGraphic" in2="effect1_dropShadow_5_134" result="shape"/>
</filter>
</defs>
</svg>
